<?xml version="1.0" encoding="utf-8"?><svg version="1.1" id="Layer_1" xmlns="http://www.w3.org/2000/svg" xmlns:xlink="http://www.w3.org/1999/xlink" x="0px" y="0px" viewBox="0 0 122.88 100.53" style="enable-background:new 0 0 122.88 100.53" xml:space="preserve"><g><path d="M56.9,50.27h9.08c1.33,0,2.55,0.54,3.42,1.42c0.88,0.88,1.42,2.09,1.42,3.42v19.14c0,1.33-0.54,2.54-1.42,3.42 c-0.88,0.88-2.09,1.42-3.42,1.42H56.9c-1.33,0-2.54-0.54-3.42-1.42c-0.88-0.88-1.42-2.09-1.42-3.42V55.12 c0-1.33,0.54-2.55,1.42-3.42C54.36,50.82,55.57,50.27,56.9,50.27L56.9,50.27z M6.97,13.96h31.5V4.94c0-1.36,0.55-2.59,1.45-3.49 C40.81,0.55,42.05,0,43.41,0h36.06c1.36,0,2.59,0.55,3.49,1.45c0.89,0.89,1.45,2.13,1.45,3.49v9.03h31.5 c1.92,0,3.66,0.78,4.93,2.05c1.26,1.26,2.05,3.01,2.05,4.93v72.62c0,1.92-0.78,3.66-2.05,4.93c-1.26,1.26-3.01,2.05-4.93,2.05H6.97 c-1.92,0-3.66-0.78-4.93-2.05C0.78,97.22,0,95.48,0,93.56V20.94c0-1.92,0.78-3.66,2.05-4.93C3.31,14.75,5.05,13.96,6.97,13.96 L6.97,13.96z M79.47,4.33H43.41c-0.17,0-0.32,0.07-0.43,0.18c-0.11,0.11-0.18,0.26-0.18,0.43v8.93h37.28V4.94 c0-0.17-0.07-0.32-0.18-0.43C79.79,4.39,79.64,4.33,79.47,4.33L79.47,4.33z M4.32,55.63c15.93,4.58,27.71,6.55,43.65,7.29v4.33 c-15.93-0.73-27.71-2.65-43.65-7.14v33.44c0,0.73,0.3,1.39,0.78,1.87c0.48,0.48,1.14,0.78,1.87,0.78h108.93 c0.73,0,1.39-0.3,1.87-0.78c0.48-0.48,0.78-1.14,0.78-1.87V60.12c-15.91,4.48-26.98,6.4-42.88,7.13v-4.33 c15.91-0.75,26.98-2.72,42.88-7.29V20.94c0-0.73-0.3-1.39-0.78-1.87c-0.48-0.48-1.14-0.78-1.87-0.78H6.97 c-0.73,0-1.39,0.3-1.87,0.78c-0.48,0.48-0.78,1.14-0.78,1.87V55.63L4.32,55.63z M65.98,54.6H56.9c-0.14,0-0.27,0.06-0.36,0.15 c-0.09,0.09-0.15,0.22-0.15,0.36v19.14c0,0.14,0.06,0.27,0.15,0.36c0.09,0.1,0.22,0.15,0.36,0.15h9.08c0.14,0,0.27-0.06,0.36-0.15 c0.09-0.09,0.15-0.22,0.15-0.36V55.12c0-0.14-0.06-0.27-0.15-0.36C66.25,54.66,66.12,54.6,65.98,54.6L65.98,54.6z"/></g></svg>